<mxfile host="app.diagrams.net" agent="Mozilla/5.0 (Windows NT 10.0; Win64; x64) AppleWebKit/537.36 (KHTML, like Gecko) Chrome/132.0.0.0 Safari/537.36" version="26.0.10">
  <diagram name="Página-1" id="1nDQp7tsxFsnxolAf3Ik">
    <mxGraphModel dx="2294" dy="1949" grid="1" gridSize="10" guides="1" tooltips="1" connect="1" arrows="1" fold="1" page="1" pageScale="1" pageWidth="827" pageHeight="1169" math="0" shadow="0">
      <root>
        <mxCell id="0" />
        <mxCell id="1" parent="0" />
        <mxCell id="1qVYXdqbrRdGlsdLRYkd-1" value="&lt;h2&gt;&lt;font face=&quot;Verdana&quot;&gt;Cliente&lt;/font&gt;&lt;/h2&gt;" style="shape=umlActor;verticalLabelPosition=bottom;verticalAlign=top;html=1;" vertex="1" parent="1">
          <mxGeometry x="590" y="150" width="140" height="260" as="geometry" />
        </mxCell>
        <mxCell id="1qVYXdqbrRdGlsdLRYkd-4" value="&lt;h2&gt;&lt;font face=&quot;Verdana&quot;&gt;Administrador&lt;/font&gt;&lt;/h2&gt;" style="shape=umlActor;verticalLabelPosition=bottom;verticalAlign=top;html=1;" vertex="1" parent="1">
          <mxGeometry x="130" y="150" width="140" height="260" as="geometry" />
        </mxCell>
        <mxCell id="1qVYXdqbrRdGlsdLRYkd-5" value="&lt;h3&gt;&lt;span&gt;&lt;font style=&quot;color: rgb(255, 255, 255);&quot;&gt;&lt;font style=&quot;&quot;&gt;Entrar na&lt;br&gt;&lt;/font&gt;&lt;/font&gt;&lt;/span&gt;&lt;span&gt;&lt;font style=&quot;color: rgb(255, 255, 255);&quot;&gt;&lt;font style=&quot;&quot;&gt;Aplicação&lt;/font&gt;&lt;/font&gt;&lt;/span&gt;&lt;/h3&gt;" style="strokeWidth=2;html=1;shape=mxgraph.flowchart.start_1;whiteSpace=wrap;fillColor=#666600;strokeColor=default;fontFamily=Verdana;" vertex="1" parent="1">
          <mxGeometry x="360" y="150" width="150" height="100" as="geometry" />
        </mxCell>
        <mxCell id="1qVYXdqbrRdGlsdLRYkd-7" value="&lt;h3&gt;&lt;font style=&quot;color: rgb(255, 255, 255);&quot;&gt;&lt;font&gt;Sair da&lt;br&gt;&lt;/font&gt;&lt;/font&gt;&lt;font style=&quot;color: rgb(255, 255, 255);&quot;&gt;&lt;font&gt;Aplicação&lt;/font&gt;&lt;/font&gt;&lt;/h3&gt;" style="strokeWidth=2;html=1;shape=mxgraph.flowchart.start_1;whiteSpace=wrap;fillColor=#666600;strokeColor=default;fontFamily=Verdana;" vertex="1" parent="1">
          <mxGeometry x="360" y="310" width="150" height="100" as="geometry" />
        </mxCell>
        <mxCell id="1qVYXdqbrRdGlsdLRYkd-9" value="&lt;h3&gt;&lt;font color=&quot;#ffffff&quot;&gt;Cadastra-se&lt;/font&gt;&lt;/h3&gt;" style="strokeWidth=2;html=1;shape=mxgraph.flowchart.start_1;whiteSpace=wrap;fillColor=#006600;strokeColor=default;fontFamily=Verdana;" vertex="1" parent="1">
          <mxGeometry x="720" y="10" width="150" height="100" as="geometry" />
        </mxCell>
        <mxCell id="1qVYXdqbrRdGlsdLRYkd-10" value="&lt;h3&gt;&lt;font color=&quot;#ffffff&quot;&gt;Ver Catalogo de Produtos&lt;/font&gt;&lt;/h3&gt;" style="strokeWidth=2;html=1;shape=mxgraph.flowchart.start_1;whiteSpace=wrap;fillColor=#006600;strokeColor=default;fontFamily=Verdana;" vertex="1" parent="1">
          <mxGeometry x="810" y="150" width="150" height="100" as="geometry" />
        </mxCell>
        <mxCell id="1qVYXdqbrRdGlsdLRYkd-11" value="&lt;h3&gt;&lt;font color=&quot;#ffffff&quot;&gt;Ver Compras&lt;/font&gt;&lt;/h3&gt;" style="strokeWidth=2;html=1;shape=mxgraph.flowchart.start_1;whiteSpace=wrap;fillColor=#006600;strokeColor=default;fontFamily=Verdana;" vertex="1" parent="1">
          <mxGeometry x="810" y="310" width="150" height="100" as="geometry" />
        </mxCell>
        <mxCell id="1qVYXdqbrRdGlsdLRYkd-12" value="&lt;h3&gt;&lt;font color=&quot;#ffffff&quot;&gt;Carrinho&lt;/font&gt;&lt;/h3&gt;" style="strokeWidth=2;html=1;shape=mxgraph.flowchart.start_1;whiteSpace=wrap;fillColor=#006600;strokeColor=default;fontFamily=Verdana;" vertex="1" parent="1">
          <mxGeometry x="730" y="460" width="150" height="100" as="geometry" />
        </mxCell>
        <mxCell id="1qVYXdqbrRdGlsdLRYkd-15" value="&lt;h3&gt;&lt;font color=&quot;#ffffff&quot;&gt;Manter Registros de Categorias&lt;/font&gt;&lt;/h3&gt;" style="strokeWidth=2;html=1;shape=mxgraph.flowchart.start_1;whiteSpace=wrap;fillColor=#660000;strokeColor=default;fontFamily=Verdana;" vertex="1" parent="1">
          <mxGeometry x="125" y="-120" width="150" height="100" as="geometry" />
        </mxCell>
        <mxCell id="1qVYXdqbrRdGlsdLRYkd-16" value="&lt;h3&gt;&lt;font color=&quot;#ffffff&quot;&gt;Manter Cadastros de Clientes&lt;/font&gt;&lt;/h3&gt;" style="strokeWidth=2;html=1;shape=mxgraph.flowchart.start_1;whiteSpace=wrap;fillColor=#660000;strokeColor=default;fontFamily=Verdana;" vertex="1" parent="1">
          <mxGeometry x="240" width="150" height="100" as="geometry" />
        </mxCell>
        <mxCell id="1qVYXdqbrRdGlsdLRYkd-17" value="&lt;h3&gt;&lt;font color=&quot;#ffffff&quot;&gt;Manter Registros de Produtos&lt;/font&gt;&lt;/h3&gt;" style="strokeWidth=2;html=1;shape=mxgraph.flowchart.start_1;whiteSpace=wrap;fillColor=#660000;strokeColor=default;fontFamily=Verdana;" vertex="1" parent="1">
          <mxGeometry x="-30" width="150" height="100" as="geometry" />
        </mxCell>
        <mxCell id="1qVYXdqbrRdGlsdLRYkd-18" value="&lt;h3&gt;&lt;font color=&quot;#ffffff&quot;&gt;Visualizar Relatório de Vendas Parciais&lt;/font&gt;&lt;/h3&gt;" style="strokeWidth=2;html=1;shape=mxgraph.flowchart.start_1;whiteSpace=wrap;fillColor=#660000;strokeColor=default;fontFamily=Verdana;" vertex="1" parent="1">
          <mxGeometry x="-30" y="460" width="150" height="100" as="geometry" />
        </mxCell>
        <mxCell id="1qVYXdqbrRdGlsdLRYkd-19" value="&lt;h3&gt;&lt;font color=&quot;#ffffff&quot;&gt;Visualizar Relatório de Vendas Totais&lt;/font&gt;&lt;/h3&gt;" style="strokeWidth=2;html=1;shape=mxgraph.flowchart.start_1;whiteSpace=wrap;fillColor=#660000;strokeColor=default;fontFamily=Verdana;" vertex="1" parent="1">
          <mxGeometry x="240" y="460" width="150" height="100" as="geometry" />
        </mxCell>
        <mxCell id="1qVYXdqbrRdGlsdLRYkd-41" value="" style="endArrow=none;html=1;rounded=0;strokeWidth=2;" edge="1" parent="1">
          <mxGeometry width="50" height="50" relative="1" as="geometry">
            <mxPoint x="220" y="150" as="sourcePoint" />
            <mxPoint x="270" y="100" as="targetPoint" />
          </mxGeometry>
        </mxCell>
        <mxCell id="1qVYXdqbrRdGlsdLRYkd-43" value="" style="endArrow=none;html=1;rounded=0;strokeWidth=2;" edge="1" parent="1">
          <mxGeometry width="50" height="50" relative="1" as="geometry">
            <mxPoint x="160" y="150" as="sourcePoint" />
            <mxPoint x="100" y="100" as="targetPoint" />
          </mxGeometry>
        </mxCell>
        <mxCell id="1qVYXdqbrRdGlsdLRYkd-45" value="" style="endArrow=none;html=1;rounded=0;strokeWidth=2;" edge="1" parent="1">
          <mxGeometry width="50" height="50" relative="1" as="geometry">
            <mxPoint x="50" y="199.29000000000002" as="sourcePoint" />
            <mxPoint x="150" y="199.29000000000002" as="targetPoint" />
          </mxGeometry>
        </mxCell>
        <mxCell id="1qVYXdqbrRdGlsdLRYkd-46" value="" style="endArrow=none;html=1;rounded=0;strokeWidth=2;" edge="1" parent="1">
          <mxGeometry width="50" height="50" relative="1" as="geometry">
            <mxPoint x="60" y="359.29" as="sourcePoint" />
            <mxPoint x="160" y="359.29" as="targetPoint" />
          </mxGeometry>
        </mxCell>
        <mxCell id="1qVYXdqbrRdGlsdLRYkd-48" value="" style="endArrow=none;html=1;rounded=0;strokeWidth=2;" edge="1" parent="1">
          <mxGeometry width="50" height="50" relative="1" as="geometry">
            <mxPoint x="250" y="199.29000000000002" as="sourcePoint" />
            <mxPoint x="350" y="199.29000000000002" as="targetPoint" />
          </mxGeometry>
        </mxCell>
        <mxCell id="1qVYXdqbrRdGlsdLRYkd-49" value="" style="endArrow=none;html=1;rounded=0;strokeWidth=2;" edge="1" parent="1">
          <mxGeometry width="50" height="50" relative="1" as="geometry">
            <mxPoint x="250" y="359.29" as="sourcePoint" />
            <mxPoint x="350" y="359.29" as="targetPoint" />
          </mxGeometry>
        </mxCell>
        <mxCell id="1qVYXdqbrRdGlsdLRYkd-50" value="" style="endArrow=none;html=1;rounded=0;strokeWidth=2;" edge="1" parent="1">
          <mxGeometry width="50" height="50" relative="1" as="geometry">
            <mxPoint x="520" y="359.29" as="sourcePoint" />
            <mxPoint x="620" y="359.29" as="targetPoint" />
          </mxGeometry>
        </mxCell>
        <mxCell id="1qVYXdqbrRdGlsdLRYkd-51" value="" style="endArrow=none;html=1;rounded=0;strokeWidth=2;" edge="1" parent="1">
          <mxGeometry width="50" height="50" relative="1" as="geometry">
            <mxPoint x="520" y="199.29000000000002" as="sourcePoint" />
            <mxPoint x="620" y="199.29000000000002" as="targetPoint" />
          </mxGeometry>
        </mxCell>
        <mxCell id="1qVYXdqbrRdGlsdLRYkd-52" value="" style="endArrow=none;html=1;rounded=0;strokeWidth=2;" edge="1" parent="1">
          <mxGeometry width="50" height="50" relative="1" as="geometry">
            <mxPoint x="700" y="199.29000000000002" as="sourcePoint" />
            <mxPoint x="800" y="199.29000000000002" as="targetPoint" />
          </mxGeometry>
        </mxCell>
        <mxCell id="1qVYXdqbrRdGlsdLRYkd-53" value="" style="endArrow=none;html=1;rounded=0;strokeWidth=2;" edge="1" parent="1">
          <mxGeometry width="50" height="50" relative="1" as="geometry">
            <mxPoint x="700" y="359.29" as="sourcePoint" />
            <mxPoint x="800" y="359.29" as="targetPoint" />
          </mxGeometry>
        </mxCell>
        <mxCell id="1qVYXdqbrRdGlsdLRYkd-54" value="" style="endArrow=none;html=1;rounded=0;strokeWidth=2;" edge="1" parent="1">
          <mxGeometry width="50" height="50" relative="1" as="geometry">
            <mxPoint x="800" y="450" as="sourcePoint" />
            <mxPoint x="740" y="400" as="targetPoint" />
          </mxGeometry>
        </mxCell>
        <mxCell id="1qVYXdqbrRdGlsdLRYkd-55" value="" style="endArrow=none;html=1;rounded=0;strokeWidth=2;" edge="1" parent="1">
          <mxGeometry width="50" height="50" relative="1" as="geometry">
            <mxPoint x="680" y="150" as="sourcePoint" />
            <mxPoint x="730" y="100" as="targetPoint" />
          </mxGeometry>
        </mxCell>
        <mxCell id="1qVYXdqbrRdGlsdLRYkd-56" value="&lt;h3&gt;&lt;font color=&quot;#ffffff&quot;&gt;Definir Métodos de Pagamento&lt;/font&gt;&lt;/h3&gt;" style="strokeWidth=2;html=1;shape=mxgraph.flowchart.start_1;whiteSpace=wrap;fillColor=#660000;strokeColor=default;fontFamily=Verdana;" vertex="1" parent="1">
          <mxGeometry x="-110" y="310" width="150" height="100" as="geometry" />
        </mxCell>
        <mxCell id="1qVYXdqbrRdGlsdLRYkd-58" value="" style="endArrow=none;html=1;rounded=0;strokeWidth=2;" edge="1" parent="1">
          <mxGeometry width="50" height="50" relative="1" as="geometry">
            <mxPoint x="80" y="450" as="sourcePoint" />
            <mxPoint x="130" y="400" as="targetPoint" />
          </mxGeometry>
        </mxCell>
        <mxCell id="1qVYXdqbrRdGlsdLRYkd-59" value="&lt;h3&gt;&lt;font color=&quot;#ffffff&quot;&gt;Reajuste de Preços&lt;/font&gt;&lt;/h3&gt;" style="strokeWidth=2;html=1;shape=mxgraph.flowchart.start_1;whiteSpace=wrap;fillColor=#660000;strokeColor=default;fontFamily=Verdana;" vertex="1" parent="1">
          <mxGeometry x="-110" y="150" width="150" height="100" as="geometry" />
        </mxCell>
        <mxCell id="1qVYXdqbrRdGlsdLRYkd-61" value="" style="endArrow=none;html=1;rounded=0;strokeWidth=2;" edge="1" parent="1">
          <mxGeometry width="50" height="50" relative="1" as="geometry">
            <mxPoint x="199.29" y="130" as="sourcePoint" />
            <mxPoint x="200" as="targetPoint" />
          </mxGeometry>
        </mxCell>
        <mxCell id="1qVYXdqbrRdGlsdLRYkd-63" value="" style="endArrow=none;html=1;rounded=0;strokeWidth=2;" edge="1" parent="1">
          <mxGeometry width="50" height="50" relative="1" as="geometry">
            <mxPoint x="320" y="450" as="sourcePoint" />
            <mxPoint x="270" y="400" as="targetPoint" />
          </mxGeometry>
        </mxCell>
      </root>
    </mxGraphModel>
  </diagram>
</mxfile>
